<svg width="640" height="1136" xmlns="http://www.w3.org/2000/svg">
  <!-- 移动设备优化的背景 -->
  <defs>
    <linearGradient id="grad1" x1="0%" y1="0%" x2="100%" y2="100%">
      <stop offset="0%" style="stop-color:#667eea;stop-opacity:1" />
      <stop offset="100%" style="stop-color:#764ba2;stop-opacity:1" />
    </linearGradient>
    
    <!-- 简化的纹理模式 -->
    <pattern id="pattern1" patternUnits="userSpaceOnUse" width="100" height="100" patternTransform="rotate(45)">
      <line x1="0" y1="0" x2="0" y2="100" stroke="white" stroke-width="0.5" opacity="0.1" />
    </pattern>
  </defs>
  
  <!-- 背景矩形 -->
  <rect width="100%" height="100%" fill="url(#grad1)" />
  
  <!-- 添加纹理 -->
  <rect width="100%" height="100%" fill="url(#pattern1)" />
  
  <!-- 中央轮廓 - 更简化版本 -->
  <path 
    d="M320,400 C300,400 280,410 270,430 C260,450 255,470 250,490 C245,510 240,530 230,550 C220,570 210,590 210,610 C210,630 220,650 230,660 C240,670 250,675 260,680 C270,685 280,690 290,700 C300,710 310,720 320,730 C330,720 340,710 350,700 C360,690 370,685 380,680 C390,675 400,670 410,660 C420,650 430,630 430,610 C430,590 420,570 410,550 C400,530 395,510 390,490 C385,470 380,450 370,430 C360,410 340,400 320,400 Z"
    fill="none"
    stroke="white"
    stroke-width="2"
    stroke-linecap="round"
    stroke-linejoin="round"
    opacity="0.5"
  />
  
  <!-- 简化的装饰元素 -->
  <circle cx="320" cy="540" r="200" fill="none" stroke="white" stroke-width="0.5" opacity="0.15" />
</svg>