<svg 
 xmlns="http://www.w3.org/2000/svg"
 xmlns:xlink="http://www.w3.org/1999/xlink"
 width="1427px" height="1459px">
<path fill-rule="evenodd"  fill="rgb(255, 255, 255)"
 d="M1009.659,748.352 C1009.555,763.569 1004.804,763.269 1000.281,773.679 C1000.906,774.617 1001.532,775.555 1002.157,776.493 C1004.657,776.180 1007.159,775.868 1009.659,775.555 C1010.284,773.366 1010.910,771.177 1011.535,768.989 C1012.785,768.989 1014.036,768.989 1015.286,768.989 C1016.224,770.865 1017.162,772.741 1018.100,774.617 C1013.035,789.494 1005.691,794.655 998.405,805.572 C984.375,804.727 976.563,807.672 965.582,809.324 C964.644,812.451 963.706,815.578 962.768,818.704 C968.985,820.663 978.197,823.052 985.276,826.209 C982.382,827.957 983.156,825.650 983.400,829.023 C1072.898,847.424 1091.102,953.976 1136.264,1017.567 C1148.475,1034.760 1163.199,1063.430 1183.155,1069.159 C1182.047,1075.295 1179.193,1073.359 1184.093,1077.601 C1188.157,1082.916 1192.221,1088.233 1196.285,1093.548 C1205.349,1114.183 1214.417,1134.823 1223.481,1155.458 C1228.225,1171.267 1231.624,1195.156 1245.051,1202.360 C1245.051,1204.861 1245.051,1207.363 1245.051,1209.864 C1243.488,1210.177 1241.925,1210.489 1240.362,1210.802 C1242.614,1218.827 1239.664,1227.672 1242.238,1236.129 C1245.989,1243.007 1249.741,1249.887 1253.492,1256.765 C1256.385,1266.105 1253.375,1274.761 1259.118,1283.030 C1278.185,1296.162 1297.258,1309.297 1316.325,1322.428 C1326.953,1324.616 1337.583,1326.805 1348.211,1328.994 C1392.899,1349.272 1426.511,1394.537 1426.988,1458.442 C951.562,1458.442 475.994,1458.442 0.569,1458.442 C7.956,1428.706 25.992,1409.020 39.957,1385.276 C66.905,1339.457 86.280,1290.164 116.858,1248.323 C141.864,1218.934 166.877,1189.537 191.883,1160.148 C195.887,1153.881 195.652,1147.765 199.386,1140.449 C206.369,1126.770 221.202,1113.537 227.520,1100.114 C230.646,1088.234 233.773,1076.349 236.899,1064.469 C250.027,1034.768 263.159,1005.057 276.287,975.356 C283.525,962.357 325.164,914.426 337.245,906.880 C347.560,901.252 357.878,895.623 368.193,889.995 C373.082,882.592 360.202,871.891 361.628,861.854 C364.184,843.857 362.246,835.051 356.939,821.519 C351.743,808.271 361.562,790.541 356.001,778.369 C349.650,777.408 351.059,775.988 349.437,770.865 C337.809,772.473 333.250,767.208 322.240,763.361 C320.990,759.921 319.739,756.481 318.489,753.042 C319.426,752.730 320.364,752.417 321.302,752.104 C330.986,754.663 339.322,748.510 344.747,743.662 C342.712,739.863 342.692,738.732 338.183,737.096 C343.654,730.703 364.318,705.542 365.379,693.946 C377.447,693.541 402.610,665.145 404.768,654.549 C374.310,655.028 300.076,634.074 299.732,600.143 C296.024,600.285 295.260,602.095 294.105,599.205 C288.890,592.721 295.603,585.297 284.727,583.258 C284.089,577.128 284.036,553.676 284.727,552.303 C287.349,547.100 290.835,548.513 291.292,538.233 C274.173,516.910 286.914,513.907 290.354,494.145 C274.681,471.969 288.832,462.638 292.230,443.492 C302.069,443.877 313.072,442.147 316.613,435.987 C320.536,428.119 320.806,413.827 317.551,406.908 C319.114,406.908 320.677,406.908 322.240,406.908 C322.749,391.659 332.596,372.038 326.929,361.883 C323.505,361.028 325.011,361.918 323.178,360.007 C324.741,359.694 326.304,359.381 327.867,359.069 C327.867,354.692 327.867,350.313 327.867,345.936 C335.016,346.013 333.033,345.269 338.183,342.184 C338.183,338.745 338.183,335.305 338.183,331.866 C332.237,330.887 333.1000,331.488 334.431,326.238 C343.720,323.437 337.544,321.851 340.996,315.919 C348.181,303.575 355.317,289.137 358.815,273.708 C359.127,265.266 359.440,256.822 359.752,248.381 C367.315,232.098 374.602,207.737 384.136,192.099 C386.089,188.896 391.967,185.638 393.514,182.719 C398.447,173.410 396.986,164.367 402.892,156.454 C410.339,146.475 423.408,136.035 429.151,124.561 C428.838,122.372 428.526,120.183 428.213,117.995 C437.676,105.597 460.374,98.388 464.788,81.411 C466.976,81.724 469.165,82.037 471.353,82.349 C471.686,70.327 514.331,38.541 526.684,32.634 C539.607,26.453 547.892,31.208 557.632,22.315 C560.273,23.953 560.040,24.351 564.196,25.129 C567.547,19.667 577.659,16.038 585.766,13.873 C585.166,18.040 584.849,17.897 588.580,17.625 C597.567,21.269 613.725,23.246 623.279,22.315 C623.512,15.927 623.972,12.810 622.341,9.183 C621.091,8.870 619.840,8.557 618.590,8.245 C635.465,7.848 648.780,6.036 664.543,0.741 C668.289,3.207 691.501,13.193 697.366,3.555 C692.427,3.860 687.502,3.996 685.175,1.679 C713.349,1.171 741.462,-3.145 765.827,9.183 C768.953,11.997 772.079,14.811 775.205,17.625 C778.956,18.250 782.708,18.876 786.459,19.501 C789.585,23.566 792.711,27.631 795.837,31.696 C803.371,37.067 812.666,29.235 820.220,34.510 C828.293,40.146 836.394,51.676 843.666,57.960 C850.542,63.903 875.401,72.520 883.992,75.783 C884.441,97.772 902.976,95.231 912.126,107.676 C907.228,108.069 908.390,107.061 906.499,110.490 C921.984,117.871 927.648,136.125 937.447,148.950 C940.573,148.324 943.700,147.699 946.826,147.074 C952.348,157.275 962.454,159.322 962.768,172.400 C961.206,173.651 959.642,174.902 958.079,176.153 C958.392,179.904 958.705,183.657 959.017,187.409 C982.516,195.527 994.404,216.009 1003.095,239.001 C1003.720,244.316 1004.345,249.632 1004.970,254.947 C1007.460,260.201 1015.658,266.076 1017.162,273.708 C1018.975,282.911 1018.221,315.718 1021.851,320.609 C1023.875,322.591 1028.811,322.877 1032.167,323.424 C1030.882,330.518 1035.266,351.410 1037.794,355.317 C1022.128,362.327 1047.424,394.277 1048.110,396.590 C1047.172,399.717 1046.234,402.844 1045.296,405.970 C1046.859,406.596 1048.422,407.221 1049.985,407.846 C1035.551,425.847 1067.418,450.522 1057.488,474.447 C1053.799,483.334 1038.842,491.512 1041.545,503.526 C1033.556,503.663 1030.199,506.477 1030.291,514.782 C1035.733,516.989 1032.195,542.257 1036.856,554.179 C1045.208,575.541 1082.776,633.822 1062.177,663.929 C1062.490,670.495 1062.802,677.062 1063.115,683.628 C1057.703,694.131 1042.552,726.682 1041.545,737.096 C1028.027,738.480 1024.801,747.217 1009.659,748.352 ZM319.426,369.387 C320.052,369.387 320.677,369.387 321.302,369.387 C319.996,371.191 321.207,369.949 319.426,371.263 C319.426,370.638 319.426,370.012 319.426,369.387 ZM314.737,394.714 C315.362,395.965 315.988,397.216 316.613,398.466 C314.676,396.624 315.642,398.115 314.737,394.714 Z"/>
</svg>