<svg width="1920" height="1080" xmlns="http://www.w3.org/2000/svg">
  <!-- 渐变背景 -->
  <defs>
    <linearGradient id="grad1" x1="0%" y1="0%" x2="100%" y2="100%">
      <stop offset="0%" style="stop-color:#667eea;stop-opacity:1" />
      <stop offset="100%" style="stop-color:#764ba2;stop-opacity:1" />
    </linearGradient>
  </defs>
  
  <!-- 背景矩形 -->
  <rect width="100%" height="100%" fill="url(#grad1)" />
  
  <!-- 中央轮廓提示 - 简化版 -->
  <path 
    d="M960,400 C940,400 920,410 910,430 C900,450 895,470 890,490 C885,510 880,530 870,550 C860,570 850,590 850,610 C850,630 860,650 870,660 C880,670 890,675 900,680 C910,685 920,690 930,700 C940,710 950,720 960,730 C970,720 980,710 990,700 C1000,690 1010,685 1020,680 C1030,675 1040,670 1050,660 C1060,650 1070,630 1070,610 C1070,590 1060,570 1050,550 C1040,530 1035,510 1030,490 C1025,470 1020,450 1010,430 C1000,410 980,400 960,400 Z"
    fill="none"
    stroke="white"
    stroke-width="3"
    stroke-linecap="round"
    stroke-linejoin="round"
    opacity="0.6"
  />
  
  <!-- 加载提示文本 -->
  <text x="960" y="850" font-family="Arial" font-size="24" fill="white" text-anchor="middle" opacity="0.8">Loading...</text>
  
  <!-- 装饰性元素 -->
  <circle cx="960" cy="540" r="300" fill="none" stroke="white" stroke-width="1" opacity="0.2" />
  <circle cx="960" cy="540" r="320" fill="none" stroke="white" stroke-width="0.5" opacity="0.1" />
</svg>