<svg xmlns="http://www.w3.org/2000/svg" width="181" height="181"><path fill-rule="evenodd" fill="#FFF" d="M180.248 84.997l-5.025 5.026-.847-.847 1.103-5.983-3.543 3.543-.847-.848 5.025-5.025.935.935-1.117 5.822 3.469-3.47.847.847zm-8.705-7.245l-1.323 1.322 1.805 1.805-.731.73-1.804-1.804-1.512 1.512 2.235 2.235-.73.73-3.185-3.184 5.025-5.026 3.076 3.075-.731.731-2.125-2.126zm-7.012.571c-.716.058-1.461-.263-2.184-.986-.679-.68-1.044-1.425-.979-2.177.073-.877.672-1.476 1.096-1.899l3.024-3.024.964.964-3.177 3.177c-.709.709-1.023 1.432-.146 2.309.876.876 1.599.562 2.308-.147l3.177-3.177.84.84-3.024 3.024c-.424.424-1.022 1.023-1.899 1.096zm-5.419-4.411l-1.19-1.191.54-4.689-2.615 2.615-.964-.964 5.025-5.026.965.964-2.287 2.287 4.376-.198 1.03 1.03-4.354.117-.526 5.055zm-6.58-6.58l.818-1.622-1.899-1.899-1.636.803-.877-.876 6.837-3.214 1.03 1.03-3.243 6.808-1.03-1.03zm2.71-5.384l-2.834 1.388 1.417 1.417 1.417-2.805zm-3.557-3.775s-.328-.738-.993-1.403c-1.11-1.11-2.345-1.19-3.601.066-1.264 1.264-1.227 2.542-.27 3.499.357.358.715.54.715.54l1.227-1.227-.876-.876.716-.716 1.819 1.819-2.477 2.476s-.935-.409-1.84-1.315c-1.563-1.563-1.834-3.426-.095-5.164 1.782-1.783 3.725-1.49 5.368.153a6.845 6.845 0 011.118 1.454l-.752.752-.059-.058zm-13.271-4.959l5.026-5.026.964.965-5.026 5.025-.964-.964zm-2.833-2.833l2.242-2.243-2.162-2.162-2.242 2.243-.964-.965 5.025-5.025.964.964-2.052 2.053 2.162 2.162 2.052-2.053.965.965-5.026 5.025-.964-.964zm-.876-9.203s-.387-.84-.935-1.388c-.547-.548-1.037-.584-1.373-.248-.979.979 1.541 3.002-.131 4.675-.994.993-2.279.672-3.419-.468-.781-.781-1.095-1.548-1.095-1.548l.752-.753.051.051s.402.986 1.008 1.593c.57.569 1.161.65 1.571.241 1.051-1.052-1.461-3.083.124-4.668.869-.869 2.052-.708 3.177.417a6.128 6.128 0 011.052 1.431l-.723.723-.059-.058zm-11.021-2.505c-1.534-1.534-1.352-3.367.233-4.952 1.615-1.614 3.477-1.768 5.011-.234 1.534 1.534 1.351 3.368-.234 4.953-1.614 1.614-3.476 1.767-5.01.233zm4.514-4.485c-.877-.876-1.98-.723-3.243.541-1.264 1.264-1.417 2.367-.541 3.243.877.877 1.98.723 3.243-.54 1.264-1.264 1.417-2.367.541-3.244zm-6.551-3.118s1.147 1.235-.051 2.433c-.577.577-1.213.672-1.804.533-.724-.168-1.235-.679-1.666-1.11l-1.695-1.695 5.026-5.025 1.68 1.68c.453.453.825.84.979 1.417.138.533.022 1.059-.468 1.548-1.015 1.016-2.001.219-2.001.219zm-2.031-1.139l-1.563 1.563.723.723c.175.176.468.468.869.577.366.102.687 0 .979-.292.329-.329.387-.65.292-.993-.109-.387-.358-.636-.592-.87l-.708-.708zm3.177-.811c-.08-.285-.277-.496-.467-.686l-.606-.607-1.373 1.373.606.607c.204.204.387.387.679.475.285.08.599.029.891-.264.292-.292.351-.613.27-.898zm-8.129-.664c-.715.059-1.46-.263-2.184-.986-.679-.679-1.044-1.424-.978-2.177.073-.876.672-1.475 1.095-1.899l3.024-3.024.965.965-3.178 3.177c-.708.709-1.022 1.432-.146 2.308.876.877 1.6.562 2.308-.146l3.178-3.177.84.84-3.024 3.024c-.424.423-1.023 1.022-1.9 1.095zm-1.818-9.137s-.387-.84-.935-1.388c-.547-.547-1.037-.584-1.373-.248-.978.979 1.542 3.002-.131 4.675-.994.993-2.279.672-3.419-.468-.781-.781-1.095-1.548-1.095-1.548l.752-.752.051.051s.402.986 1.008 1.592c.57.57 1.162.65 1.571.241 1.051-1.052-1.461-3.082.124-4.667.869-.87 2.052-.709 3.177.416a6.087 6.087 0 011.052 1.432l-.723.723-.059-.059zm-5.455-5.689l-4.28 4.28-.965-.964 4.281-4.28-1.395-1.395.745-.746 3.747 3.748-.745.745-1.388-1.388zm-8.114.446l.818-1.621-1.899-1.899-1.637.803-.876-.876 6.837-3.215 1.03 1.031-3.244 6.807-1.029-1.03zm2.709-5.383l-2.834 1.388 1.417 1.417 1.417-2.805zm-8.589-.496l2.243-2.242-2.162-2.162-2.243 2.242-.964-.964L95.296.045l.965.965-2.053 2.052 2.162 2.162 2.053-2.052.964.964-5.025 5.025-.965-.964zm75.622 86.023v.001l1.003 1.003-84.952 84.952-66.747-66.748h-.001l-.001-.001L.118 95.224l18.2-18.201a.008.008 0 00.004-.004l.004-.003L85.07 10.272l83.945 83.945.004.003zM85.07 176.708l39.876-39.875-5.201-5.201-39.876 39.875 5.201 5.201zm24.233-117.932a40.34 40.34 0 00-4.442 2.493l27.754 27.754a30.488 30.488 0 014.813-2.122l-28.125-28.125zm30.81 27.343a30.795 30.795 0 016.101-.834L116.959 56.03a40.097 40.097 0 00-5.24 1.695l28.394 28.394zM102.804 62.68a40.874 40.874 0 00-3.779 3.155l27.54 27.541a30.57 30.57 0 013.881-3.054L102.804 62.68zm-5.513 4.889a40.598 40.598 0 00-3.155 3.78l27.642 27.642a30.66 30.66 0 013.053-3.882l-27.54-27.54zm-4.566 5.836a40.197 40.197 0 00-2.493 4.442l28.125 28.125a30.437 30.437 0 012.122-4.813L92.725 73.405zm-3.544 6.858a39.96 39.96 0 00-1.695 5.241l29.255 29.254c.075-2.051.35-4.096.834-6.101L89.181 80.263zm27.635 38.038L86.889 88.374a40.436 40.436 0 00-.58 6.354l32.612 32.612a30.677 30.677 0 01-2.105-9.039zm-38.681 51.472l39.876-39.875-5.201-5.201-39.876 39.875 5.201 5.201zm-6.934-6.934l39.875-39.876-5.201-5.201-39.876 39.875 5.202 5.202zm-6.935-6.936l39.875-39.875-5.201-5.201-39.875 39.875 5.201 5.201zm-6.935-6.934l39.875-39.876-5.201-5.201-39.875 39.876 5.201 5.201zm-6.935-6.935l39.875-39.875-5.201-5.202-39.875 39.876 5.201 5.201zm-6.935-6.935l39.876-39.875-5.202-5.201-39.875 39.875 5.201 5.201zm9.535-56.346a23.354 23.354 0 00-2.984-2.516v37.974a23.28 23.28 0 002.984-2.517c9.082-9.082 9.082-23.859 0-32.941zm-16.47 49.411l8.727-8.727a25.84 25.84 0 01-17.453 0l8.726 8.727zm-11.033-12.429a23.332 23.332 0 0011.033 2.77c3.802 0 7.601-.926 11.034-2.77V96.449H25.493v19.286zM12.312 86.497l-8.726 8.727 8.726 8.727a25.911 25.911 0 010-17.454zm10.73-10.261a23.311 23.311 0 00-2.982 2.513l-.008.008c-9.077 9.082-9.076 23.856.003 32.936l.002.002a23.294 23.294 0 002.985 2.516V76.236zm2.451 17.761H47.56V74.713a23.323 23.323 0 00-11.034-2.771c-3.801 0-7.6.926-11.033 2.77v19.285zm2.306-22.987c9.091-3.261 19.662-1.26 26.931 6.009 4.863 4.863 7.541 11.328 7.541 18.204 0 3.011-.514 5.943-1.499 8.695l15.63-15.629-32.941-32.941L27.799 71.01zm55.915 21.124C82.207 72.327 66.358 56.478 46.551 54.97l37.163 37.164zM46.551 52.258c19.807-1.507 35.656-17.356 37.163-37.163L46.551 52.258zm7.105 1.356c15.446 3.785 27.63 15.968 31.414 31.414 3.785-15.446 15.968-27.629 31.413-31.414-15.445-3.784-27.628-15.967-31.413-31.413-3.784 15.446-15.968 27.629-31.414 31.413zm32.77-38.519c1.507 19.807 17.357 35.656 37.164 37.164L86.426 15.095zm39.758 39.758a40.425 40.425 0 00-6.354.58l29.927 29.927c3.081.241 6.132.939 9.039 2.105l-32.612-32.612zm1.226 41.101c-10.749 10.749-10.982 28.084-.712 39.126l39.838-39.838c-11.042-10.269-28.378-10.036-39.126.712z"/></svg>